<svg xmlns="http://www.w3.org/2000/svg" width="841" height="74" fill="none" viewBox="0 0 841 74">
  <path fill="#039" d="m9.318 2.182 20.727 58.773h.819L51.59 2.181h8.864L34.818 72h-8.727L.455 2.182h8.863Zm78 70.909c-5.045 0-9.397-1.114-13.057-3.341-3.636-2.25-6.443-5.386-8.42-9.41-1.955-4.045-2.932-8.75-2.932-14.113 0-5.363.977-10.09 2.932-14.181 1.977-4.114 4.727-7.319 8.25-9.614 3.545-2.318 7.682-3.477 12.409-3.477 2.727 0 5.42.454 8.08 1.363 2.659.91 5.08 2.386 7.261 4.432 2.182 2.023 3.92 4.704 5.216 8.045C108.352 36.136 109 40.25 109 45.136v3.41H68.636V41.59h32.182c0-2.955-.591-5.591-1.772-7.91-1.16-2.317-2.819-4.147-4.978-5.488-2.136-1.34-4.659-2.011-7.568-2.011-3.204 0-5.977.795-8.318 2.386a15.697 15.697 0 0 0-5.353 6.137c-1.25 2.522-1.874 5.227-1.874 8.113v4.637c0 3.954.681 7.306 2.045 10.056 1.386 2.728 3.307 4.807 5.761 6.239 2.455 1.41 5.307 2.114 8.557 2.114 2.114 0 4.023-.296 5.728-.887 1.727-.613 3.215-1.523 4.465-2.727 1.25-1.227 2.216-2.75 2.898-4.568l7.773 2.182a17.23 17.23 0 0 1-4.125 6.954c-1.932 1.978-4.318 3.523-7.16 4.636-2.84 1.092-6.033 1.637-9.579 1.637ZM121.24 72V19.636h7.772v7.91h.546c.954-2.591 2.682-4.694 5.182-6.307 2.5-1.614 5.318-2.42 8.454-2.42.591 0 1.33.01 2.216.033.886.023 1.557.057 2.011.102v8.182c-.272-.068-.897-.17-1.875-.306a18.449 18.449 0 0 0-3.034-.24c-2.545 0-4.818.535-6.818 1.603-1.977 1.046-3.545 2.5-4.704 4.364-1.137 1.84-1.705 3.943-1.705 6.307V72h-8.045Zm51.127 1.227c-3.318 0-6.329-.625-9.034-1.875-2.704-1.273-4.852-3.102-6.443-5.488-1.591-2.41-2.386-5.319-2.386-8.728 0-3 .591-5.431 1.773-7.295a12.507 12.507 0 0 1 4.738-4.432c1.977-1.068 4.159-1.864 6.546-2.386a79.677 79.677 0 0 1 7.261-1.296 325.01 325.01 0 0 1 7.739-.92c2-.227 3.454-.602 4.363-1.125.932-.523 1.398-1.432 1.398-2.727v-.273c0-3.364-.92-5.978-2.761-7.841-1.819-1.864-4.58-2.796-8.284-2.796-3.841 0-6.853.841-9.035 2.523-2.181 1.682-3.715 3.477-4.602 5.387l-7.636-2.728c1.363-3.181 3.182-5.659 5.454-7.431 2.296-1.796 4.796-3.046 7.5-3.75 2.728-.728 5.409-1.091 8.046-1.091 1.682 0 3.613.204 5.795.613 2.205.386 4.33 1.193 6.375 2.42 2.068 1.228 3.784 3.08 5.148 5.558 1.364 2.477 2.045 5.795 2.045 9.954V72h-8.045v-7.09h-.409c-.546 1.136-1.455 2.351-2.727 3.647-1.273 1.295-2.966 2.397-5.08 3.307-2.114.909-4.693 1.363-7.739 1.363ZM173.594 66c3.182 0 5.863-.625 8.045-1.875 2.205-1.25 3.864-2.864 4.977-4.84 1.137-1.978 1.705-4.058 1.705-6.24v-7.363c-.341.409-1.091.784-2.25 1.125-1.136.318-2.455.602-3.955.852-1.477.227-2.92.432-4.329.614-1.386.159-2.511.295-3.375.409-2.091.273-4.046.716-5.864 1.33-1.795.59-3.25 1.488-4.363 2.693-1.091 1.181-1.637 2.795-1.637 4.84 0 2.796 1.034 4.91 3.103 6.341 2.09 1.41 4.738 2.114 7.943 2.114Zm45.503-25.5V72h-8.046V19.636h7.773v8.182h.682c1.227-2.659 3.091-4.795 5.591-6.409 2.5-1.636 5.727-2.454 9.681-2.454 3.546 0 6.648.727 9.307 2.181 2.659 1.432 4.728 3.614 6.205 6.546 1.477 2.909 2.216 6.59 2.216 11.045V72h-8.046V39.273c0-4.114-1.068-7.319-3.204-9.614-2.137-2.318-5.068-3.477-8.796-3.477-2.568 0-4.863.557-6.886 1.67-2 1.114-3.58 2.739-4.739 4.875-1.159 2.137-1.738 4.728-1.738 7.773Zm63.519 32.727c-3.318 0-6.329-.625-9.034-1.875-2.704-1.273-4.852-3.102-6.443-5.488-1.591-2.41-2.386-5.319-2.386-8.728 0-3 .591-5.431 1.773-7.295a12.507 12.507 0 0 1 4.738-4.432c1.977-1.068 4.159-1.864 6.546-2.386a79.677 79.677 0 0 1 7.261-1.296 325.01 325.01 0 0 1 7.739-.92c2-.227 3.454-.602 4.363-1.125.932-.523 1.398-1.432 1.398-2.727v-.273c0-3.364-.92-5.978-2.761-7.841-1.819-1.864-4.58-2.796-8.284-2.796-3.841 0-6.853.841-9.035 2.523-2.181 1.682-3.715 3.477-4.602 5.387l-7.636-2.728c1.363-3.181 3.182-5.659 5.454-7.431 2.296-1.796 4.796-3.046 7.5-3.75 2.728-.728 5.409-1.091 8.046-1.091 1.682 0 3.613.204 5.795.613 2.205.386 4.33 1.193 6.375 2.42 2.068 1.228 3.784 3.08 5.148 5.558 1.364 2.477 2.045 5.795 2.045 9.954V72h-8.045v-7.09h-.409c-.546 1.136-1.455 2.351-2.727 3.647-1.273 1.295-2.966 2.397-5.08 3.307-2.114.909-4.693 1.363-7.739 1.363ZM283.844 66c3.182 0 5.863-.625 8.045-1.875 2.205-1.25 3.864-2.864 4.977-4.84 1.137-1.978 1.705-4.058 1.705-6.24v-7.363c-.341.409-1.091.784-2.25 1.125-1.136.318-2.455.602-3.955.852-1.477.227-2.92.432-4.329.614-1.386.159-2.511.295-3.375.409-2.091.273-4.046.716-5.864 1.33-1.795.59-3.25 1.488-4.363 2.693-1.091 1.181-1.637 2.795-1.637 4.84 0 2.796 1.034 4.91 3.103 6.341 2.09 1.41 4.738 2.114 7.943 2.114Zm65.548 6V2.182h41.864v7.5h-33.409v23.59h30.272v7.5h-30.272V72h-8.455Zm72.682 1.09c-4.727 0-8.875-1.124-12.443-3.374-3.546-2.25-6.319-5.398-8.319-9.443-1.977-4.046-2.965-8.773-2.965-14.182 0-5.455.988-10.216 2.965-14.284 2-4.068 4.773-7.227 8.319-9.477 3.568-2.25 7.716-3.375 12.443-3.375 4.727 0 8.864 1.125 12.409 3.375 3.568 2.25 6.341 5.409 8.318 9.477 2 4.068 3 8.83 3 14.284 0 5.409-1 10.136-3 14.182-1.977 4.045-4.75 7.193-8.318 9.443-3.545 2.25-7.682 3.375-12.409 3.375Zm0-7.226c3.591 0 6.545-.92 8.864-2.762 2.318-1.84 4.034-4.261 5.147-7.261 1.114-3 1.671-6.25 1.671-9.75s-.557-6.761-1.671-9.784c-1.113-3.023-2.829-5.466-5.147-7.33-2.319-1.863-5.273-2.795-8.864-2.795-3.591 0-6.546.932-8.864 2.795-2.318 1.864-4.034 4.307-5.148 7.33-1.113 3.023-1.67 6.284-1.67 9.784 0 3.5.557 6.75 1.67 9.75 1.114 3 2.83 5.42 5.148 7.261 2.318 1.841 5.273 2.762 8.864 2.762Zm69.008-15.273V19.636h8.046V72h-8.046v-8.864h-.545c-1.227 2.66-3.136 4.92-5.727 6.785-2.591 1.84-5.864 2.76-9.819 2.76-3.272 0-6.181-.715-8.727-2.147-2.545-1.455-4.545-3.636-6-6.545-1.454-2.932-2.182-6.625-2.182-11.08V19.636h8.046v32.728c0 3.818 1.068 6.863 3.204 9.136 2.159 2.273 4.909 3.41 8.25 3.41 2 0 4.034-.512 6.103-1.535 2.091-1.023 3.841-2.59 5.25-4.705 1.431-2.113 2.147-4.806 2.147-8.08ZM521.909 40.5V72h-8.045V19.636h7.772v8.182h.682c1.227-2.659 3.091-4.795 5.591-6.409 2.5-1.636 5.727-2.454 9.682-2.454 3.545 0 6.648.727 9.307 2.181 2.659 1.432 4.727 3.614 6.204 6.546 1.478 2.909 2.216 6.59 2.216 11.045V72h-8.045V39.273c0-4.114-1.068-7.319-3.205-9.614-2.136-2.318-5.068-3.477-8.795-3.477-2.568 0-4.864.557-6.887 1.67-2 1.114-3.579 2.739-4.738 4.875-1.159 2.137-1.739 4.728-1.739 7.773Zm67.884 32.59c-4.364 0-8.216-1.101-11.557-3.306-3.341-2.227-5.955-5.364-7.841-9.409-1.886-4.068-2.83-8.875-2.83-14.42 0-5.5.944-10.273 2.83-14.319 1.886-4.045 4.511-7.17 7.875-9.375 3.364-2.204 7.25-3.306 11.659-3.306 3.409 0 6.102.568 8.08 1.704 2 1.114 3.522 2.387 4.568 3.818 1.068 1.41 1.897 2.569 2.488 3.477h.682V2.183h8.046V72h-7.773v-8.045h-.955c-.591.954-1.431 2.159-2.522 3.613-1.091 1.432-2.648 2.716-4.671 3.853-2.023 1.113-4.716 1.67-8.079 1.67Zm1.091-7.226c3.227 0 5.954-.841 8.181-2.523 2.228-1.705 3.921-4.057 5.08-7.057 1.159-3.023 1.739-6.511 1.739-10.466 0-3.909-.569-7.33-1.705-10.261-1.136-2.955-2.818-5.25-5.045-6.887-2.228-1.659-4.978-2.488-8.25-2.488-3.41 0-6.25.875-8.523 2.625-2.25 1.727-3.943 4.08-5.08 7.057-1.113 2.954-1.67 6.272-1.67 9.954 0 3.727.568 7.114 1.704 10.16 1.159 3.022 2.864 5.431 5.114 7.227 2.273 1.772 5.091 2.659 8.455 2.659Zm54.17 7.363c-3.318 0-6.33-.625-9.034-1.875-2.705-1.273-4.852-3.102-6.443-5.488-1.591-2.41-2.387-5.319-2.387-8.728 0-3 .591-5.431 1.773-7.295a12.51 12.51 0 0 1 4.739-4.432c1.977-1.068 4.159-1.864 6.545-2.386a79.698 79.698 0 0 1 7.262-1.296c3.181-.409 5.761-.716 7.738-.92 2-.227 3.455-.602 4.364-1.125.932-.523 1.398-1.432 1.398-2.727v-.273c0-3.364-.921-5.978-2.762-7.841-1.818-1.864-4.579-2.796-8.284-2.796-3.841 0-6.852.841-9.034 2.523-2.182 1.682-3.716 3.477-4.602 5.387l-7.637-2.728c1.364-3.181 3.182-5.659 5.455-7.431 2.295-1.796 4.795-3.046 7.5-3.75 2.727-.728 5.409-1.091 8.045-1.091 1.682 0 3.614.204 5.796.613 2.204.386 4.329 1.193 6.375 2.42 2.068 1.228 3.784 3.08 5.148 5.558 1.363 2.477 2.045 5.795 2.045 9.954V72h-8.045v-7.09h-.41c-.545 1.136-1.454 2.351-2.727 3.647-1.273 1.295-2.966 2.397-5.079 3.307-2.114.909-4.694 1.363-7.739 1.363ZM646.281 66c3.182 0 5.864-.625 8.046-1.875 2.204-1.25 3.863-2.864 4.977-4.84 1.136-1.978 1.705-4.058 1.705-6.24v-7.363c-.341.409-1.091.784-2.25 1.125-1.137.318-2.455.602-3.955.852-1.477.227-2.92.432-4.33.614-1.386.159-2.511.295-3.375.409-2.09.273-4.045.716-5.863 1.33-1.796.59-3.25 1.488-4.364 2.693-1.091 1.181-1.636 2.795-1.636 4.84 0 2.796 1.034 4.91 3.102 6.341 2.091 1.41 4.739 2.114 7.943 2.114Zm60.23-46.364v6.819h-27.136v-6.819h27.136ZM687.284 7.091h8.046V57c0 2.273.329 3.977.988 5.114.682 1.113 1.546 1.863 2.591 2.25 1.068.363 2.193.545 3.375.545.886 0 1.614-.045 2.182-.136l1.364-.273 1.636 7.227c-.546.205-1.307.41-2.284.614-.977.227-2.216.34-3.716.34-2.273 0-4.5-.488-6.682-1.465-2.159-.977-3.954-2.466-5.386-4.466-1.409-2-2.114-4.523-2.114-7.568V7.09ZM718.614 72V19.636h8.045V72h-8.045Zm4.091-61.09c-1.569 0-2.921-.535-4.057-1.603-1.114-1.068-1.671-2.352-1.671-3.852s.557-2.785 1.671-3.853C719.784.534 721.136 0 722.705 0c1.568 0 2.909.534 4.022 1.602 1.137 1.068 1.705 2.353 1.705 3.853s-.568 2.784-1.705 3.852c-1.113 1.068-2.454 1.602-4.022 1.602Zm39.963 62.18c-4.728 0-8.875-1.124-12.444-3.374-3.545-2.25-6.318-5.398-8.318-9.443-1.977-4.046-2.966-8.773-2.966-14.182 0-5.455.989-10.216 2.966-14.284 2-4.068 4.773-7.227 8.318-9.477 3.569-2.25 7.716-3.375 12.444-3.375 4.727 0 8.863 1.125 12.409 3.375 3.568 2.25 6.341 5.409 8.318 9.477 2 4.068 3 8.83 3 14.284 0 5.409-1 10.136-3 14.182-1.977 4.045-4.75 7.193-8.318 9.443-3.546 2.25-7.682 3.375-12.409 3.375Zm0-7.226c3.591 0 6.545-.92 8.863-2.762 2.318-1.84 4.034-4.261 5.148-7.261 1.114-3 1.67-6.25 1.67-9.75s-.556-6.761-1.67-9.784c-1.114-3.023-2.83-5.466-5.148-7.33-2.318-1.863-5.272-2.795-8.863-2.795-3.591 0-6.546.932-8.864 2.795-2.318 1.864-4.034 4.307-5.148 7.33-1.113 3.023-1.67 6.284-1.67 9.784 0 3.5.557 6.75 1.67 9.75 1.114 3 2.83 5.42 5.148 7.261 2.318 1.841 5.273 2.762 8.864 2.762ZM806.722 40.5V72h-8.046V19.636h7.773v8.182h.682c1.227-2.659 3.091-4.795 5.591-6.409 2.5-1.636 5.727-2.454 9.681-2.454 3.546 0 6.648.727 9.307 2.181 2.659 1.432 4.728 3.614 6.205 6.546 1.477 2.909 2.216 6.59 2.216 11.045V72h-8.046V39.273c0-4.114-1.068-7.319-3.204-9.614-2.137-2.318-5.068-3.477-8.796-3.477-2.568 0-4.863.557-6.886 1.67-2 1.114-3.58 2.739-4.739 4.875-1.159 2.137-1.738 4.728-1.738 7.773Z"/>
</svg>
