<svg xmlns="http://www.w3.org/2000/svg" xmlns:xlink="http://www.w3.org/1999/xlink" contentStyleType="text/css" data-diagram-type="CLASS" height="235.7832px" preserveAspectRatio="none" style="width:800px;height:235px;background:#FFFFFF;" version="1.1" viewBox="0 0 800 235" width="800.5939px" zoomAndPan="magnify"><defs/><g><!--cluster tr--><g class="cluster" data-entity="tr" data-source-line="4" data-uid="ent0002" id="cluster_tr"><path d="M125.0186,38.0935 L192.4108,38.0935 A2.2272,2.2272 0 0 1 193.8956,39.5783 L198.053,51.3359 L324.5731,51.3359 A1.4848,1.4848 0 0 1 326.0579,52.8207 L326.0579,114.1737 A1.4848,1.4848 0 0 1 324.5731,115.6585 L125.0186,115.6585 A1.4848,1.4848 0 0 1 123.5338,114.1737 L123.5338,39.5783 A1.4848,1.4848 0 0 1 125.0186,38.0935" fill="#3FBDB6" style="stroke:#000000;stroke-width:0.8909;"/><line style="stroke:#000000;stroke-width:0.8909;" x1="123.5338" x2="198.053" y1="51.3359" y2="51.3359"/><text fill="#000000" font-family="sans-serif" font-size="8.3148" font-weight="bold" lengthAdjust="spacing" textLength="66.7983" x="125.9094" y="46.9993">Trust Registry</text></g><!--cluster ig--><g class="cluster" data-entity="ig" data-source-line="13" data-uid="ent0005" id="cluster_ig"><path d="M581.1433,38.0935 L649.5261,38.0935 A2.2272,2.2272 0 0 1 651.0109,39.5783 L655.1683,51.3359 L772.977,51.3359 A1.4848,1.4848 0 0 1 774.4618,52.8207 L774.4618,114.1737 A1.4848,1.4848 0 0 1 772.977,115.6585 L581.1433,115.6585 A1.4848,1.4848 0 0 1 579.6585,114.1737 L579.6585,39.5783 A1.4848,1.4848 0 0 1 581.1433,38.0935" fill="none" style="stroke:#000000;stroke-width:0.8909;"/><line style="stroke:#000000;stroke-width:0.8909;" x1="579.6585" x2="655.1683" y1="51.3359" y2="51.3359"/><text fill="#000000" font-family="sans-serif" font-size="8.3148" font-weight="bold" lengthAdjust="spacing" textLength="67.789" x="582.0341" y="46.9993">Issuer Grantor</text></g><!--cluster issuer--><g class="cluster" data-entity="issuer" data-source-line="21" data-uid="ent0008" id="cluster_issuer"><path d="M125.0186,154.2628 L154.2635,154.2628 A2.2272,2.2272 0 0 1 155.7483,155.7476 L159.9057,167.5052 L316.2584,167.5052 A1.4848,1.4848 0 0 1 317.7431,168.99 L317.7431,230.337 A1.4848,1.4848 0 0 1 316.2584,231.8218 L125.0186,231.8218 A1.4848,1.4848 0 0 1 123.5338,230.337 L123.5338,155.7476 A1.4848,1.4848 0 0 1 125.0186,154.2628" fill="#7677ED" style="stroke:#000000;stroke-width:0.8909;"/><line style="stroke:#000000;stroke-width:0.8909;" x1="123.5338" x2="159.9057" y1="167.5052" y2="167.5052"/><text fill="#000000" font-family="sans-serif" font-size="8.3148" font-weight="bold" lengthAdjust="spacing" textLength="28.6511" x="125.9094" y="163.1686">Issuer</text></g><!--cluster vg--><g class="cluster" data-entity="vg" data-source-line="30" data-uid="ent0011" id="cluster_vg"><path d="M351.2992,38.0935 L426.2632,38.0935 A2.2272,2.2272 0 0 1 427.748,39.5783 L431.9054,51.3359 L554.4172,51.3359 A1.4848,1.4848 0 0 1 555.902,52.8207 L555.902,114.1737 A1.4848,1.4848 0 0 1 554.4172,115.6585 L351.2992,115.6585 A1.4848,1.4848 0 0 1 349.8144,114.1737 L349.8144,39.5783 A1.4848,1.4848 0 0 1 351.2992,38.0935" fill="none" style="stroke:#000000;stroke-width:0.8909;"/><line style="stroke:#000000;stroke-width:0.8909;" x1="349.8144" x2="431.9054" y1="51.3359" y2="51.3359"/><text fill="#000000" font-family="sans-serif" font-size="8.3148" font-weight="bold" lengthAdjust="spacing" textLength="74.3701" x="352.1901" y="46.9993">Verifier Grantor</text></g><!--cluster verifier--><g class="cluster" data-entity="verifier" data-source-line="39" data-uid="ent0014" id="cluster_verifier"><path d="M5.0483,42.8448 L40.8744,42.8448 A2.2272,2.2272 0 0 1 42.3592,44.3296 L46.5166,56.0872 L103.0438,56.0872 A1.4848,1.4848 0 0 1 104.5286,57.572 L104.5286,225.5857 A1.4848,1.4848 0 0 1 103.0438,227.0705 L5.0483,227.0705 A1.4848,1.4848 0 0 1 3.5635,225.5857 L3.5635,44.3296 A1.4848,1.4848 0 0 1 5.0483,42.8448" fill="#00B0F0" style="stroke:#000000;stroke-width:0.8909;"/><line style="stroke:#000000;stroke-width:0.8909;" x1="3.5635" x2="46.5166" y1="56.0872" y2="56.0872"/><text fill="#000000" font-family="sans-serif" font-size="8.3148" font-weight="bold" lengthAdjust="spacing" textLength="35.2322" x="5.9391" y="51.7506">Verifier</text></g><!--cluster ua--><g class="cluster" data-entity="ua" data-source-line="48" data-uid="ent0017" id="cluster_ua"><path d="M342.9844,154.2628 L395.8339,154.2628 A2.2272,2.2272 0 0 1 397.3187,155.7476 L401.4761,167.5052 L551.4477,167.5052 A1.4848,1.4848 0 0 1 552.9324,168.99 L552.9324,230.337 A1.4848,1.4848 0 0 1 551.4477,231.8218 L342.9844,231.8218 A1.4848,1.4848 0 0 1 341.4996,230.337 L341.4996,155.7476 A1.4848,1.4848 0 0 1 342.9844,154.2628" fill="none" style="stroke:#000000;stroke-width:0.8909;"/><line style="stroke:#000000;stroke-width:0.8909;" x1="341.4996" x2="401.4761" y1="167.5052" y2="167.5052"/><text fill="#000000" font-family="sans-serif" font-size="8.3148" font-weight="bold" lengthAdjust="spacing" textLength="52.2556" x="343.8753" y="163.1686">User Agent</text></g><!--cluster wua--><g class="cluster" data-entity="wua" data-source-line="57" data-uid="ent0020" id="cluster_wua"><path d="M578.1737,154.2628 L664.0144,154.2628 A2.2272,2.2272 0 0 1 665.4991,155.7476 L669.6565,167.5052 L794.9517,167.5052 A1.4848,1.4848 0 0 1 796.4365,168.99 L796.4365,230.337 A1.4848,1.4848 0 0 1 794.9517,231.8218 L578.1737,231.8218 A1.4848,1.4848 0 0 1 576.6889,230.337 L576.6889,155.7476 A1.4848,1.4848 0 0 1 578.1737,154.2628" fill="none" style="stroke:#000000;stroke-width:0.8909;"/><line style="stroke:#000000;stroke-width:0.8909;" x1="576.6889" x2="669.6565" y1="167.5052" y2="167.5052"/><text fill="#000000" font-family="sans-serif" font-size="8.3148" font-weight="bold" lengthAdjust="spacing" textLength="85.2467" x="579.0646" y="163.1686">Wallet User Agent</text></g><g class="entity" data-entity="tra" data-source-line="5" data-uid="ent0003" id="entity_tra"><rect fill="#F1F1F1" height="26.4848" rx="1.4848" ry="1.4848" style="stroke:#181818;stroke-width:0.297;" width="63.9581" x="137.8827" y="74.9161"/><text fill="#000000" font-family="sans-serif" font-size="8.3148" lengthAdjust="spacing" textLength="47.2172" x="146.2532" y="83.8219">TR Account</text><line style="stroke:#181818;stroke-width:0.297;" x1="138.4766" x2="201.2469" y1="86.9707" y2="86.9707"/><text fill="#000000" font-family="sans-serif" font-size="8.3148" lengthAdjust="spacing" textLength="35.6869" x="162.5904" y="97.0643">+16 TUs</text></g><g class="entity" data-entity="trtd" data-source-line="8" data-uid="ent0004" id="entity_trtd"><rect fill="#F1F1F1" height="26.4848" rx="1.4848" ry="1.4848" style="stroke:#181818;stroke-width:0.297;" width="77.6018" x="222.5212" y="74.9161"/><text fill="#000000" font-family="sans-serif" font-size="8.3148" lengthAdjust="spacing" textLength="69.2871" x="226.6785" y="83.8219">TR Trust Deposit</text><line style="stroke:#181818;stroke-width:0.297;" x1="223.1151" x2="299.5291" y1="86.9707" y2="86.9707"/><text fill="#000000" font-family="sans-serif" font-size="8.3148" lengthAdjust="spacing" textLength="30.3968" x="247.2288" y="97.0643">+4 TUs</text></g><g class="entity" data-entity="iga" data-source-line="14" data-uid="ent0006" id="entity_iga"><rect fill="#F1F1F1" height="26.4848" rx="1.4848" ry="1.4848" style="stroke:#181818;stroke-width:0.297;" width="58.668" x="593.6808" y="74.9161"/><text fill="#000000" font-family="sans-serif" font-size="8.3148" lengthAdjust="spacing" textLength="45.2562" x="600.3866" y="83.8219">IG Account</text><line style="stroke:#181818;stroke-width:0.297;" x1="594.2747" x2="651.7548" y1="86.9707" y2="86.9707"/><text fill="#000000" font-family="sans-serif" font-size="8.3148" lengthAdjust="spacing" textLength="30.3968" x="618.3885" y="97.0643">+4 TUs</text></g><g class="entity" data-entity="igtd" data-source-line="17" data-uid="ent0007" id="entity_igtd"><rect fill="#F1F1F1" height="26.4848" rx="1.4848" ry="1.4848" style="stroke:#181818;stroke-width:0.297;" width="75.6409" x="673.0928" y="74.9161"/><text fill="#000000" font-family="sans-serif" font-size="8.3148" lengthAdjust="spacing" textLength="67.3261" x="677.2502" y="83.8219">IG Trust Deposit</text><line style="stroke:#181818;stroke-width:0.297;" x1="673.6867" x2="748.1398" y1="86.9707" y2="86.9707"/><text fill="#000000" font-family="sans-serif" font-size="8.3148" lengthAdjust="spacing" textLength="30.3968" x="697.8005" y="97.0643">+1 TUs</text></g><g class="entity" data-entity="issuera" data-source-line="22" data-uid="ent0009" id="entity_issuera"><rect fill="#F1F1F1" height="26.4848" rx="1.4848" ry="1.4848" style="stroke:#181818;stroke-width:0.297;" width="63.9581" x="137.8827" y="191.0854"/><text fill="#000000" font-family="sans-serif" font-size="8.3148" lengthAdjust="spacing" textLength="38.8131" x="150.4552" y="199.9912">I Account</text><line style="stroke:#181818;stroke-width:0.297;" x1="138.4766" x2="201.2469" y1="203.1399" y2="203.1399"/><text fill="#000000" font-family="sans-serif" font-size="8.3148" lengthAdjust="spacing" textLength="35.6869" x="162.5904" y="213.2336">+24 TUs</text></g><g class="entity" data-entity="issuertd" data-source-line="25" data-uid="ent0010" id="entity_issuertd"><rect fill="#F1F1F1" height="26.4848" rx="1.4848" ry="1.4848" style="stroke:#181818;stroke-width:0.297;" width="69.1978" x="222.5627" y="191.0854"/><text fill="#000000" font-family="sans-serif" font-size="8.3148" lengthAdjust="spacing" textLength="60.883" x="226.7201" y="199.9912">I Trust Deposit</text><line style="stroke:#181818;stroke-width:0.297;" x1="223.1566" x2="291.1666" y1="203.1399" y2="203.1399"/><text fill="#000000" font-family="sans-serif" font-size="8.3148" lengthAdjust="spacing" textLength="30.3968" x="247.2704" y="213.2336">+6 TUs</text></g><g class="entity" data-entity="vga" data-source-line="31" data-uid="ent0012" id="entity_vga"><rect fill="#F1F1F1" height="26.4848" rx="1.4848" ry="1.4848" style="stroke:#181818;stroke-width:0.297;" width="66.6011" x="364.0267" y="74.9161"/><text fill="#000000" font-family="sans-serif" font-size="8.3148" lengthAdjust="spacing" textLength="48.492" x="373.0813" y="83.8219">VG Account</text><line style="stroke:#181818;stroke-width:0.297;" x1="364.6206" x2="430.0339" y1="86.9707" y2="86.9707"/><text fill="#000000" font-family="sans-serif" font-size="8.3148" lengthAdjust="spacing" textLength="38.33" x="388.7344" y="97.0643">+1.6 TUs</text></g><g class="entity" data-entity="vgtd" data-source-line="34" data-uid="ent0013" id="entity_vgtd"><rect fill="#F1F1F1" height="26.4848" rx="1.4848" ry="1.4848" style="stroke:#181818;stroke-width:0.297;" width="78.8767" x="451.1359" y="74.9161"/><text fill="#000000" font-family="sans-serif" font-size="8.3148" lengthAdjust="spacing" textLength="70.5619" x="455.2932" y="83.8219">VG Trust Deposit</text><line style="stroke:#181818;stroke-width:0.297;" x1="451.7298" x2="529.4186" y1="86.9707" y2="86.9707"/><text fill="#000000" font-family="sans-serif" font-size="8.3148" lengthAdjust="spacing" textLength="38.33" x="475.8435" y="97.0643">+0.4 TUs</text></g><g class="entity" data-entity="verifiera" data-source-line="40" data-uid="ent0015" id="entity_verifiera"><rect fill="#F1F1F1" height="26.4848" rx="1.4848" ry="1.4848" style="stroke:#181818;stroke-width:0.297;" width="67.9247" x="27.2131" y="74.9161"/><text fill="#000000" font-family="sans-serif" font-size="8.3148" lengthAdjust="spacing" textLength="42.0489" x="40.151" y="83.8219">V Account</text><line style="stroke:#181818;stroke-width:0.297;" x1="27.807" x2="94.5438" y1="86.9707" y2="86.9707"/><text fill="#000000" font-family="sans-serif" font-size="8.3148" lengthAdjust="spacing" textLength="39.6535" x="51.9207" y="97.0643">-79.8 TUs</text></g><g class="entity" data-entity="verifiertd" data-source-line="43" data-uid="ent0016" id="entity_verifiertd"><rect fill="#F1F1F1" height="26.4848" rx="1.4848" ry="1.4848" style="stroke:#181818;stroke-width:0.297;" width="72.4335" x="13.078" y="191.0854"/><text fill="#000000" font-family="sans-serif" font-size="8.3148" lengthAdjust="spacing" textLength="64.1188" x="17.2353" y="199.9912">V Trust Deposit</text><line style="stroke:#181818;stroke-width:0.297;" x1="13.6719" x2="84.9176" y1="203.1399" y2="203.1399"/><text fill="#000000" font-family="sans-serif" font-size="8.3148" lengthAdjust="spacing" textLength="43.6201" x="37.7856" y="213.2336">+11.4 TUs</text></g><g class="entity" data-entity="uaa" data-source-line="49" data-uid="ent0018" id="entity_uaa"><rect fill="#F1F1F1" height="26.4848" rx="1.4848" ry="1.4848" style="stroke:#181818;stroke-width:0.297;" width="71.8912" x="356.0386" y="191.0854"/><text fill="#000000" font-family="sans-serif" font-size="8.3148" lengthAdjust="spacing" textLength="48.1347" x="367.9169" y="199.9912">UA Account</text><line style="stroke:#181818;stroke-width:0.297;" x1="356.6325" x2="427.3359" y1="203.1399" y2="203.1399"/><text fill="#000000" font-family="sans-serif" font-size="8.3148" lengthAdjust="spacing" textLength="43.6201" x="380.7463" y="213.2336">+4.56 TUs</text></g><g class="entity" data-entity="uatd" data-source-line="52" data-uid="ent0019" id="entity_uatd"><rect fill="#F1F1F1" height="26.4848" rx="1.4848" ry="1.4848" style="stroke:#181818;stroke-width:0.297;" width="78.5194" x="448.9384" y="191.0854"/><text fill="#000000" font-family="sans-serif" font-size="8.3148" lengthAdjust="spacing" textLength="70.2046" x="453.0958" y="199.9912">UA Trust Deposit</text><line style="stroke:#181818;stroke-width:0.297;" x1="449.5323" x2="526.8639" y1="203.1399" y2="203.1399"/><text fill="#000000" font-family="sans-serif" font-size="8.3148" lengthAdjust="spacing" textLength="43.6201" x="473.6461" y="213.2336">+1.14 TUs</text></g><g class="entity" data-entity="wuaa" data-source-line="58" data-uid="ent0021" id="entity_wuaa"><rect fill="#F1F1F1" height="26.4848" rx="1.4848" ry="1.4848" style="stroke:#181818;stroke-width:0.297;" width="71.8912" x="591.2279" y="191.0854"/><text fill="#000000" font-family="sans-serif" font-size="8.3148" lengthAdjust="spacing" textLength="56.3561" x="598.9955" y="199.9912">WUA Account</text><line style="stroke:#181818;stroke-width:0.297;" x1="591.8218" x2="662.5252" y1="203.1399" y2="203.1399"/><text fill="#000000" font-family="sans-serif" font-size="8.3148" lengthAdjust="spacing" textLength="43.6201" x="615.9356" y="213.2336">+4.56 TUs</text></g><g class="entity" data-entity="wuatd" data-source-line="61" data-uid="ent0022" id="entity_wuatd"><rect fill="#F1F1F1" height="26.4848" rx="1.4848" ry="1.4848" style="stroke:#181818;stroke-width:0.297;" width="86.7408" x="684.1752" y="191.0854"/><text fill="#000000" font-family="sans-serif" font-size="8.3148" lengthAdjust="spacing" textLength="78.426" x="688.3326" y="199.9912">WUA Trust Deposit</text><line style="stroke:#181818;stroke-width:0.297;" x1="684.7691" x2="770.3221" y1="203.1399" y2="203.1399"/><text fill="#000000" font-family="sans-serif" font-size="8.3148" lengthAdjust="spacing" textLength="43.6201" x="708.8829" y="213.2336">+1.14 TUs</text></g><!--link verifiera to tr--><g class="link" data-entity-1="verifiera" data-entity-2="tr" data-source-line="70" data-uid="lnk23" id="link_verifiera_tr"><path codeLine="70" d="M71.2873,74.7617 C83.1121,60.3118 104.1782,38.1707 128.2851,29.0661 C165.9451,14.8478 278.2836,3.5635 309.4284,29.0661 C311.8567,31.0557 313.8791,33.3905 315.5573,35.9623 C315.9768,36.6053 314.6274,47.3998 315.0049,48.0707" fill="none" id="verifiera-to-tr" style="stroke:#181818;stroke-width:0.5939;"/><polygon fill="#181818" points="316.7523,51.1763,316.2016,45.3529,315.2961,48.5883,312.0608,47.6828,316.7523,51.1763" style="stroke:#181818;stroke-width:0.5939;"/><text fill="#000000" font-family="sans-serif" font-size="7.7209" lengthAdjust="spacing" textLength="33.1379" x="279.1736" y="21.5037">+20 TUs</text></g><!--link verifiera to vg--><g class="link" data-entity-1="verifiera" data-entity-2="vg" data-source-line="72" data-uid="lnk24" id="link_verifiera_vg"><path codeLine="72" d="M71.2873,74.7617 C83.1121,60.3118 104.1782,38.1707 128.2851,29.0661 C149.6481,21.0007 521.6095,14.5984 539.2725,29.0661 C541.7008,31.0557 543.7232,33.3905 545.4014,35.9623 C545.8209,36.6053 544.4715,47.3998 544.849,48.0707" fill="none" id="verifiera-to-vg" style="stroke:#181818;stroke-width:0.5939;"/><polygon fill="#181818" points="546.5964,51.1763,546.0457,45.3529,545.1402,48.5883,541.9049,47.6828,546.5964,51.1763" style="stroke:#181818;stroke-width:0.5939;"/><text fill="#000000" font-family="sans-serif" font-size="7.7209" lengthAdjust="spacing" textLength="28.2256" x="210.2798" y="21.5037">+2 TUs</text></g><!--link verifiera to ig--><g class="link" data-entity-1="verifiera" data-entity-2="ig" data-source-line="74" data-uid="lnk25" id="link_verifiera_ig"><path codeLine="74" d="M71.2873,74.7617 C83.1121,60.3118 104.1782,38.1707 128.2851,29.0661 C161.0393,16.7008 731.4506,6.7528 758.4261,29.0661 C760.8404,31.0631 762.8437,33.4036 764.4993,35.9796 C764.9132,36.6236 763.5811,47.4062 763.9525,48.0779" fill="none" id="verifiera-to-ig" style="stroke:#181818;stroke-width:0.5939;"/><polygon fill="#181818" points="765.6768,51.1965,765.1695,45.3692,764.2399,48.5977,761.0114,47.6681,765.6768,51.1965" style="stroke:#181818;stroke-width:0.5939;"/><text fill="#000000" font-family="sans-serif" font-size="7.7209" lengthAdjust="spacing" textLength="28.2256" x="124.1625" y="21.5037">+5 TUs</text></g><!--link verifiera to issuer--><g class="link" data-entity-1="verifiera" data-entity-2="issuer" data-source-line="76" data-uid="lnk26" id="link_verifiera_issuer"><path codeLine="76" d="M80.2554,101.6837 C93.2264,109.8085 111.0913,119.7446 128.2851,125.1611 C165.1552,136.7661 272.6355,118.6221 301.1136,144.7602 C303.5375,146.9844 305.5447,149.5541 307.2011,152.3506 C307.4082,152.7001 307.6098,153.0532 307.806,153.4097 C307.9041,153.5879 308.0009,153.7669 308.0963,153.9467 C308.144,154.0367 306.5446,164.2091 306.5917,164.2994" fill="none" id="verifiera-to-issuer" style="stroke:#181818;stroke-width:0.5939;"/><polygon fill="#181818" points="308.2385,167.4595,307.875,161.6214,306.8661,164.8261,303.6615,163.8172,308.2385,167.4595" style="stroke:#181818;stroke-width:0.5939;"/><text fill="#000000" font-family="sans-serif" font-size="7.7209" lengthAdjust="spacing" textLength="33.1379" x="313.0266" y="137.673">+30 TUs</text></g><!--link verifiera to ua--><g class="link" data-entity-1="verifiera" data-entity-2="ua" data-source-line="78" data-uid="lnk27" id="link_verifiera_ua"><path codeLine="78" d="M79.2517,101.654 C92.2227,110.1114 110.4736,120.4395 128.2851,125.1611 C172.2227,136.8077 503.0497,114.4232 536.8968,144.7602 C539.3422,146.9517 541.3567,149.4968 543.0093,152.2753 C543.2158,152.6226 543.4168,152.9736 543.6121,153.3279 C543.7098,153.5051 543.8062,153.6832 543.9011,153.862 C543.9486,153.9514 542.3494,164.1231 542.3962,164.2129" fill="none" id="verifiera-to-ua" style="stroke:#181818;stroke-width:0.5939;"/><polygon fill="#181818" points="544.0425,167.3733,543.68,161.5352,542.6706,164.7396,539.4662,163.7302,544.0425,167.3733" style="stroke:#181818;stroke-width:0.5939;"/><text fill="#000000" font-family="sans-serif" font-size="7.7209" lengthAdjust="spacing" textLength="35.5921" x="547.622" y="137.673">+5.7 TUs</text></g><!--link verifiera to wua--><g class="link" data-entity-1="verifiera" data-entity-2="wua" data-source-line="80" data-uid="lnk28" id="link_verifiera_wua"><path codeLine="80" d="M78.9607,101.5353 C91.9317,110.052 110.3192,120.4989 128.2851,125.1611 C153.0097,131.5694 562.4588,128.7958 587.9733,129.9124 C593.3304,130.144 776.4039,141.1849 780.4009,144.7602 C782.8493,146.948 784.866,149.4903 786.5202,152.2668 C786.7269,152.6138 786.9281,152.9646 787.1236,153.3187 C787.2214,153.4958 787.3178,153.6737 787.4129,153.8524 C787.4604,153.9418 785.8593,164.1144 785.9062,164.2042" fill="none" id="verifiera-to-wua" style="stroke:#181818;stroke-width:0.5939;"/><polygon fill="#181818" points="787.5544,167.3636,787.1883,161.5257,786.1809,164.7307,782.9758,163.7233,787.5544,167.3636" style="stroke:#181818;stroke-width:0.5939;"/><text fill="#000000" font-family="sans-serif" font-size="7.7209" lengthAdjust="spacing" textLength="35.5921" x="753.1157" y="137.673">+5.7 TUs</text></g><!--link verifiera to verifiertd--><g class="link" data-entity-1="verifiera" data-entity-2="verifiertd" data-source-line="82" data-uid="lnk29" id="link_verifiera_verifiertd"><path codeLine="82" d="M59.8545,101.4996 C57.5739,123.5991 53.2718,165.2453 50.9852,187.3863" fill="none" id="verifiera-to-verifiertd" style="stroke:#181818;stroke-width:0.5939;"/><polygon fill="#181818" points="50.6192,190.931,53.5313,185.8581,50.9242,187.9771,48.8052,185.37,50.6192,190.931" style="stroke:#181818;stroke-width:0.5939;"/><text fill="#000000" font-family="sans-serif" font-size="7.7209" lengthAdjust="spacing" textLength="40.5044" x="77.2434" y="137.673">+11.4 TUs</text></g><!--SRC=[bTHBRu9040VmEvzYeiT6ijG7raCJaoR6g_5nwMM1XMvhnUmkqARnknSMRDbPw6EFpipwyp-W3EcHmIjzWpaXKF18FJdWE6SQlj24mM0hCgbWmn8kbNWV09MW10p7SH05C_Xme3nfyCn2LVPkO1c6QNPIJHzj6lHvL3VU3BOxgJ-wuCdwYnxOEPNyEgyYTC6aDNzfATTIPap0Ij2JIeMUvWdIhLU6ZYTj7ReRpTasdXYswhSPD2IhPshaq9_vFekmpiJfLXpVRI-nIwYli19iRw3jt3F1Ouuop766UpF376VekNqRtdUbc5if4dVo2x0Ul6g7X0Ga9fXfAfjcqphoxznv7xRBsjnYxTth9UzaALmch75a535tIyEPKRpmYJljoxESjOqPjNIkrwSxqEEHAK38mb8U4BFub_FG2It-8gtEz-v6OdHV_YKiz8j0T2UkvabTxIpokZYrYb5Lr2-BRXYJpewCrkEktrakVgXNig-7Ps4yD9y0]--></g></svg>