<svg xmlns="http://www.w3.org/2000/svg" xmlns:xlink="http://www.w3.org/1999/xlink" contentStyleType="text/css" data-diagram-type="CLASS" height="249.5535px" preserveAspectRatio="none" style="width:800px;height:249px;background:#FFFFFF;" version="1.1" viewBox="0 0 800 249" width="800.3862px" zoomAndPan="magnify"><defs/><g><g class="entity" data-entity="didd" data-source-line="2" data-uid="ent0002" id="entity_didd"><rect fill="#F1F1F1" height="32.9382" rx="2.2687" ry="2.2687" style="stroke:#181818;stroke-width:0.4537;" width="98.8882" x="250.7241" y="6.3523"/><text fill="#000000" font-family="sans-serif" font-size="12.7045" lengthAdjust="spacing" textLength="86.1837" x="257.0764" y="19.9599">DID Directory</text><line style="stroke:#181818;stroke-width:0.4537;" x1="251.6316" x2="348.7049" y1="24.771" y2="24.771"/></g><g class="entity" data-entity="crawler" data-source-line="3" data-uid="ent0003" id="entity_crawler"><rect fill="#3FBDB6" height="32.9382" rx="2.2687" ry="2.2687" style="stroke:#181818;stroke-width:0.4537;" width="61.5438" x="269.3998" y="109.1683"/><text fill="#000000" font-family="sans-serif" font-size="12.7045" lengthAdjust="spacing" textLength="48.8393" x="275.7521" y="122.7759">Crawler</text><line style="stroke:#181818;stroke-width:0.4537;" x1="270.3073" x2="330.0362" y1="127.5871" y2="127.5871"/></g><g class="entity" data-entity="index" data-source-line="4" data-uid="ent0004" id="entity_index"><rect fill="#3FBDB6" height="32.9382" rx="2.2687" ry="2.2687" style="stroke:#181818;stroke-width:0.4537;" width="47.9026" x="621.96" y="211.9753"/><text fill="#000000" font-family="sans-serif" font-size="12.7045" lengthAdjust="spacing" textLength="35.198" x="628.3122" y="225.5829">Index</text><line style="stroke:#181818;stroke-width:0.4537;" x1="622.8674" x2="668.9551" y1="230.394" y2="230.394"/></g><g class="entity" data-entity="dts1" data-source-line="5" data-uid="ent0005" id="entity_dts1"><rect fill="#7677ED" height="32.9382" rx="2.2687" ry="2.2687" style="stroke:#181818;stroke-width:0.4537;" width="52.2263" x="6.3523" y="211.9753"/><text fill="#000000" font-family="sans-serif" font-size="12.7045" lengthAdjust="spacing" textLength="39.5218" x="12.7045" y="225.5829">VS #1</text><line style="stroke:#181818;stroke-width:0.4537;" x1="7.2597" x2="57.6711" y1="230.394" y2="230.394"/></g><g class="entity" data-entity="dts2" data-source-line="6" data-uid="ent0006" id="entity_dts2"><rect fill="#7677ED" height="32.9382" rx="2.2687" ry="2.2687" style="stroke:#181818;stroke-width:0.4537;" width="52.2263" x="274.0551" y="211.9753"/><text fill="#000000" font-family="sans-serif" font-size="12.7045" lengthAdjust="spacing" textLength="39.5218" x="280.4074" y="225.5829">VS #2</text><line style="stroke:#181818;stroke-width:0.4537;" x1="274.9626" x2="325.374" y1="230.394" y2="230.394"/></g><g class="entity" data-entity="browser" data-source-line="7" data-uid="ent0007" id="entity_browser"><rect fill="#00B0F0" height="32.9382" rx="2.2687" ry="2.2687" style="stroke:#181818;stroke-width:0.4537;" width="64.4656" x="692.6335" y="109.1683"/><text fill="#000000" font-family="sans-serif" font-size="12.7045" lengthAdjust="spacing" textLength="51.7611" x="698.9858" y="122.7759">Browser</text><line style="stroke:#181818;stroke-width:0.4537;" x1="693.541" x2="756.1917" y1="127.5871" y2="127.5871"/></g><g class="entity" data-entity="user" data-source-line="8" data-uid="ent0008" id="entity_user"><rect fill="#F1F1F1" height="32.9382" rx="2.2687" ry="2.2687" style="stroke:#181818;stroke-width:0.4537;" width="41.662" x="704.0313" y="6.3523"/><text fill="#000000" font-family="sans-serif" font-size="12.7045" lengthAdjust="spacing" textLength="28.9574" x="710.3836" y="19.9599">User</text><line style="stroke:#181818;stroke-width:0.4537;" x1="704.9388" x2="744.7858" y1="24.771" y2="24.771"/></g><!--reverse link didd to crawler--><g class="link" data-entity-1="didd" data-entity-2="crawler" data-source-line="9" data-uid="lnk9" id="link_didd_crawler"><path codeLine="9" d="M300.172,55.8455 C300.172,74.7027 300.172,89.7576 300.172,108.7237" fill="none" id="didd-backto-crawler" style="stroke:#181818;stroke-width:0.9075;"/><polygon fill="none" points="300.172,39.5111,294.7272,55.8455,305.6168,55.8455,300.172,39.5111" style="stroke:#181818;stroke-width:0.9075;"/><text fill="#000000" font-family="sans-serif" font-size="11.7971" lengthAdjust="spacing" textLength="151.3632" x="301.0795" y="78.3751">iterate over DID directory</text></g><!--link crawler to dts1--><g class="link" data-entity-1="crawler" data-entity-2="dts1" data-source-line="10" data-uid="lnk10" id="link_crawler_dts1"><path codeLine="10" d="M269.2546,128.4066 C211.5306,132.4539 90.2567,143.8245 57.8783,169.3243 C44.7018,179.6967 41.8927,182.3579 38.7982,195.743" fill="none" id="crawler-to-dts1" style="stroke:#181818;stroke-width:0.9075;"/><polygon fill="none" points="35.119,211.6577,44.1031,196.9694,33.4934,194.5166,35.119,211.6577" style="stroke:#181818;stroke-width:0.9075;"/><text fill="#000000" font-family="sans-serif" font-size="11.7971" lengthAdjust="spacing" textLength="229.7953" x="58.7857" y="181.1821">resolve DID, get linked-vps, index data</text></g><!--link crawler to dts2--><g class="link" data-entity-1="crawler" data-entity-2="dts2" data-source-line="11" data-uid="lnk11" id="link_crawler_dts2"><path codeLine="11" d="M298.7564,142.3453 C297.8762,154.0517 296.9868,170.3951 297.4496,184.7513 C297.731,193.6808 297.1921,187.3513 297.7638,195.4096" fill="none" id="crawler-to-dts2" style="stroke:#181818;stroke-width:0.9075;"/><polygon fill="none" points="298.9197,211.7031,303.1949,195.0243,292.3326,195.7949,298.9197,211.7031" style="stroke:#181818;stroke-width:0.9075;"/><text fill="#000000" font-family="sans-serif" font-size="11.7971" lengthAdjust="spacing" textLength="229.7953" x="298.3571" y="181.1821">resolve DID, get linked-vps, index data</text></g><!--link browser to index--><g class="link" data-entity-1="browser" data-entity-2="index" data-source-line="12" data-uid="lnk12" id="link_browser_index"><path codeLine="12" d="M716.5453,142.554 C709.9298,154.6597 700.0566,171.4115 689.4755,184.7513 C681.8347,194.3886 684.1193,192.9435 675.8432,200.6569" fill="none" id="browser-to-index" style="stroke:#181818;stroke-width:0.9075;"/><polygon fill="none" points="663.894,211.7938,679.5555,204.64,672.1309,196.6739,663.894,211.7938" style="stroke:#181818;stroke-width:0.9075;"/><text fill="#000000" font-family="sans-serif" font-size="11.7971" lengthAdjust="spacing" textLength="70.2871" x="701.2726" y="181.1821">query index</text></g><!--link crawler to index--><g class="link" data-entity-1="crawler" data-entity-2="index" data-source-line="13" data-uid="lnk13" id="link_crawler_index"><path codeLine="13" d="M331.3798,129.2324 C376.7169,133.8151 462.9626,145.1131 532.4837,169.3243 C546.2772,174.1339 548.5459,178.0179 561.5226,184.7513 C581.7864,195.2779 590.3325,199.648 607.2477,208.1509" fill="none" id="crawler-to-index" style="stroke:#181818;stroke-width:0.9075;"/><polygon fill="none" points="621.842,215.4872,609.6932,203.2862,604.8023,213.0157,621.842,215.4872" style="stroke:#181818;stroke-width:0.9075;"/><text fill="#000000" font-family="sans-serif" font-size="11.7971" lengthAdjust="spacing" textLength="119.4799" x="562.4301" y="181.1821">create/update index</text></g><!--reverse link user to browser--><g class="link" data-entity-1="user" data-entity-2="browser" data-source-line="14" data-uid="lnk14" id="link_user_browser"><path codeLine="14" d="M724.8668,55.8455 C724.8668,74.7027 724.8668,89.7576 724.8668,108.7237" fill="none" id="user-backto-browser" style="stroke:#181818;stroke-width:0.9075;"/><polygon fill="none" points="724.8668,39.5111,719.422,55.8455,730.3116,55.8455,724.8668,39.5111" style="stroke:#181818;stroke-width:0.9075;"/><text fill="#000000" font-family="sans-serif" font-size="11.7971" lengthAdjust="spacing" textLength="67.8735" x="725.7742" y="78.3751">show result</text></g><!--SRC=[bOynJyCm58Jt_8gdPgs56wG6HHK3PEcCOBVpNgd1rCLsabRgZoUEuqXL9hQpxzxfFjS8JV0ZBl34EVGA_J4pyeiQ3wjwNqEjxA2DlQv0E425EDklLlIQx6WqKKF-U90ejtDcVqAwZ0aLrCB_U8Dy4wkzsq1URikIyCukabqix1ThUZSja553phda1pvdtbEW7KGM061tOsnUN87oP8KdCDtm3CoOcBCKOkps71TMOCaPtL58hk6JF6Xr-YPatTcj9qeKNYnkYt_S9fZnTloluBSbUusF- -x9RomD50_j6GDCBCi2TEHDbHMue-d3abRxFm00]--></g></svg>